<svg data-v-0dd9719b="" version="1.0" xmlns="http://www.w3.org/2000/svg" xmlns:xlink="http://www.w3.org/1999/xlink" width="100%" height="100%" viewBox="0 0 340.000000 250.000000" preserveAspectRatio="xMidYMid meet" color-interpolation-filters="sRGB" style="margin: auto;"> <rect data-v-0dd9719b="" x="0" y="0" width="100%" height="100%" fill="#fff" fill-opacity="1" class="background"></rect> <rect data-v-0dd9719b="" x="0" y="0" width="100%" height="100%" fill="url(#watermark)" fill-opacity="1" class="watermarklayer"></rect> <g data-v-0dd9719b="" fill="#333333" class="icon-text-wrapper icon-svg-group iconsvg" transform="translate(66.35999298095703,96.79390716552734)"><g class="iconsvg-imagesvg" transform="translate(0,0)"><g><rect fill="#333333" fill-opacity="0" stroke-width="2" x="0" y="0" width="60" height="56.4121850319669" class="image-rect"></rect> <svg x="0" y="0" width="60" height="56.4121850319669" filtersec="colorsb7817759081" class="image-svg-svg primary" style="overflow: visible;"><svg xmlns="http://www.w3.org/2000/svg" viewBox="0 0 106.36000061035156 100"><g><g><path fill="#02035e" d="M31.46 8.31L0 0v100l31.46-8.31 11.97-3.17V11.48L31.46 8.31z"></path><path fill="#00b0d8" opacity=".8" d="M62.93 8.31L31.46 0v100l31.47-8.31 11.96-3.17V11.48L62.93 8.31z"></path><path fill="#00b0d8" opacity=".5" d="M62.93 0v100l43.43-11.48V11.48L62.93 0z"></path></g></g></svg></svg> <!----></g></g> <g transform="translate(67,4.706092834472656)"><g data-gra="path-name" fill-rule="" class="tp-name iconsvg-namesvg"><g transform="scale(1)"><g><path d="M40.11-46.09L40.11-46.09 40.11-44.79Q38.68-44.2 37.18-42.48 35.69-40.76 33.87-37.25L33.87-37.25 21.58-12.94 18.53-12.94 3.31-41.08Q2.15-43.29 1.2-44.01 0.26-44.72-0.46-44.72L-0.46-44.72-0.46-46.09Q1.3-45.89 3.15-45.83 5-45.76 7.21-45.76L7.21-45.76Q10.08-45.76 13.39-45.86 16.71-45.95 19.44-46.09L19.44-46.09 19.44-44.72Q17.81-44.72 16.51-44.46 15.21-44.2 14.69-43.52 14.17-42.84 14.95-41.34L14.95-41.34 25.22-21.58 23.21-18.98 29.9-32.44Q32.3-37.12 32.47-39.78 32.63-42.45 31.17-43.58 29.71-44.72 27.04-44.79L27.04-44.79 27.04-46.09Q29.25-46.02 31.2-45.95 33.15-45.89 35.16-45.89L35.16-45.89Q36.59-45.89 37.86-45.95 39.13-46.02 40.11-46.09ZM21.52-16.19L26.2-23.21 26.2-6.89Q26.2-4.55 26.55-3.38 26.91-2.21 27.95-1.82 28.99-1.43 31.07-1.3L31.07-1.3 31.07 0Q29.32-0.13 26.55-0.16 23.79-0.2 21.06-0.2L21.06-0.2Q18-0.2 15.28-0.16 12.54-0.13 10.99 0L10.99 0 10.99-1.3Q13.07-1.43 14.11-1.82 15.15-2.21 15.5-3.38 15.86-4.55 15.86-6.89L15.86-6.89 15.86-20.21 21.52-16.19ZM45.83 0.46L45.83 0.46Q41.47 0.46 39.52-1.82 37.57-4.09 37.57-7.35L37.57-7.35Q37.57-10.14 38.84-11.89 40.11-13.65 42.12-14.79 44.14-15.93 46.38-16.67 48.62-17.42 50.67-18.17 52.72-18.91 53.98-19.89 55.25-20.87 55.25-22.36L55.25-22.36 55.25-27.43Q55.25-29.12 54.7-30.45 54.15-31.79 53.01-32.5 51.87-33.22 50.05-33.22L50.05-33.22Q48.75-33.22 47.45-32.86 46.15-32.5 45.31-31.66L45.31-31.66Q47.13-31.01 48.13-29.67 49.14-28.34 49.14-26.65L49.14-26.65Q49.14-24.44 47.61-23.14 46.09-21.84 44.01-21.84L44.01-21.84Q41.67-21.84 40.46-23.3 39.26-24.77 39.26-26.85L39.26-26.85Q39.26-28.73 40.2-29.96 41.15-31.2 42.84-32.3L42.84-32.3Q44.66-33.34 47.22-33.93 49.79-34.52 52.78-34.52L52.78-34.52Q55.77-34.52 58.18-33.9 60.58-33.28 62.2-31.66L62.2-31.66Q63.7-30.16 64.16-27.98 64.61-25.8 64.61-22.49L64.61-22.49 64.61-4.81Q64.61-3.25 64.94-2.6 65.26-1.95 66.04-1.95L66.04-1.95Q66.69-1.95 67.28-2.27 67.86-2.6 68.38-3.06L68.38-3.06 69.03-1.95Q67.67-0.78 65.88-0.16 64.09 0.46 61.88 0.46L61.88 0.46Q57.98 0.46 56.71-1.14 55.45-2.73 55.38-4.81L55.38-4.81Q53.76-2.15 51.38-0.84 49.01 0.46 45.83 0.46ZM50.83-3.71L50.83-3.71Q52.06-3.71 53.14-4.29 54.21-4.88 55.25-6.37L55.25-6.37 55.25-19.7Q54.47-18.39 53.07-17.52 51.68-16.64 50.21-15.63 48.75-14.63 47.78-13.07 46.8-11.51 46.8-8.91L46.8-8.91Q46.8-6.11 47.97-4.91 49.14-3.71 50.83-3.71ZM95.09-34.52L95.09-34.52Q97.83-34.52 99.55-33.83 101.27-33.15 102.25-31.98L102.25-31.98Q103.28-30.75 103.77-28.8 104.26-26.85 104.26-23.53L104.26-23.53 104.26-6.04Q104.26-3.31 105.2-2.34 106.15-1.36 108.42-1.36L108.42-1.36 108.42 0Q107.19-0.07 104.72-0.16 102.25-0.26 99.84-0.26L99.84-0.26Q97.37-0.26 95-0.16 92.63-0.07 91.39 0L91.39 0 91.39-1.36Q93.34-1.36 94.12-2.34 94.9-3.31 94.9-6.04L94.9-6.04 94.9-26.26Q94.9-27.89 94.58-29.09 94.25-30.29 93.41-30.97 92.56-31.66 90.87-31.66L90.87-31.66Q88.14-31.66 86.29-29.51 84.44-27.37 84.44-24.12L84.44-24.12 84.44-6.04Q84.44-3.31 85.25-2.34 86.06-1.36 87.95-1.36L87.95-1.36 87.95 0Q86.78-0.07 84.53-0.16 82.29-0.26 79.89-0.26L79.89-0.26Q77.42-0.26 74.81-0.16 72.22-0.07 70.92 0L70.92 0 70.92-1.36Q73.19-1.36 74.13-2.34 75.08-3.31 75.08-6.04L75.08-6.04 75.08-26.52Q75.08-29.45 74.2-30.84 73.32-32.24 70.92-32.24L70.92-32.24 70.92-33.61Q73-33.41 74.95-33.41L74.95-33.41Q77.68-33.41 80.05-33.64 82.42-33.87 84.44-34.32L84.44-34.32 84.44-28.47Q86.06-31.79 88.86-33.15 91.65-34.52 95.09-34.52ZM127.6-34.52L127.6-34.52Q133.32-34.52 136.57-31.14 139.82-27.76 139.82-20.09L139.82-20.09 118.43-20.09 118.3-21.32 131.63-21.32Q131.69-24.51 131.24-27.2 130.78-29.9 129.81-31.53 128.83-33.15 127.21-33.15L127.21-33.15Q124.93-33.15 123.34-30.29 121.75-27.43 121.42-20.8L121.42-20.8 121.62-20.41Q121.55-19.63 121.52-18.79 121.49-17.94 121.49-17.03L121.49-17.03Q121.49-12.54 122.75-9.75 124.02-6.96 125.97-5.69 127.92-4.42 129.94-4.42L129.94-4.42Q131.89-4.42 134.19-5.4 136.5-6.37 138.52-9.62L138.52-9.62 139.69-9.23Q138.91-6.76 137.22-4.42 135.53-2.08 132.93-0.58 130.33 0.91 126.69 0.91L126.69 0.91Q122.27 0.91 118.89-0.98 115.51-2.86 113.59-6.7 111.67-10.53 111.67-16.45L111.67-16.45Q111.67-22.49 113.72-26.52 115.77-30.55 119.37-32.53 122.98-34.52 127.6-34.52Z" transform="translate(0.46000000834465027, 46.09000015258789)"></path></g> <!----> <!----> <!----> <!----> <!----> <!----> <!----></g></g> <!----></g></g><defs v-gra="od"></defs></svg>